<svg xmlns="http://www.w3.org/2000/svg" width="96" height="96" viewBox="0 0 96 96" role="img" aria-labelledby="title desc">
  <title id="title">Power distribution unit icon</title>
  <desc id="desc">Abstract PDU icon showing transformer step-down and outgoing branch ways.</desc>
  <rect x="4" y="4" width="88" height="88" rx="12" fill="#ffffff" stroke="#d9e2ef" stroke-width="2"/>
  <rect x="18" y="18" width="36" height="42" rx="5" fill="#16213e"/>
  <path d="M28 30C33 24 39 24 44 30C39 36 33 36 28 30Z" fill="none" stroke="#18a999" stroke-width="4" stroke-linejoin="round"/>
  <path d="M28 43C33 37 39 37 44 43C39 49 33 49 28 43Z" fill="none" stroke="#18a999" stroke-width="4" stroke-linejoin="round"/>
  <path d="M54 39H74" stroke="#2f80ed" stroke-width="5" stroke-linecap="round"/>
  <path d="M74 39V72M62 55H82M62 72H82" fill="none" stroke="#16213e" stroke-width="5" stroke-linecap="round"/>
  <circle cx="62" cy="55" r="5" fill="#2f80ed"/>
  <circle cx="82" cy="55" r="5" fill="#18a999"/>
  <circle cx="62" cy="72" r="5" fill="#2f80ed"/>
  <circle cx="82" cy="72" r="5" fill="#18a999"/>
  <path d="M42 60L35 76H43L31 88L36 78H28L35 60Z" fill="#f5b84b"/>
</svg>
