<svg xmlns="http://www.w3.org/2000/svg" width="96" height="96" viewBox="0 0 96 96" role="img" aria-labelledby="title desc">
  <title id="title">Main switchgear one-line icon</title>
  <desc id="desc">One-line style switchgear bus and breaker symbol with subtle UI glow.</desc>
  <defs>
    <filter id="softGlow" x="-35%" y="-35%" width="170%" height="170%">
      <feGaussianBlur stdDeviation="2.2" result="blur"/>
      <feColorMatrix in="blur" type="matrix" values="0 0 0 0 0.18 0 0 0 0 0.50 0 0 0 0 0.93 0 0 0 .45 0"/>
      <feMerge>
        <feMergeNode/>
        <feMergeNode in="SourceGraphic"/>
      </feMerge>
    </filter>
  </defs>
  <rect x="5" y="5" width="86" height="86" rx="12" fill="#ffffff" stroke="#d9e2ef" stroke-width="2"/>
  <path d="M22 26H74" stroke="#16213e" stroke-width="6" stroke-linecap="round"/>
  <path d="M48 18V26" stroke="#16213e" stroke-width="5" stroke-linecap="round"/>
  <path d="M48 26V40" stroke="#2f80ed" stroke-width="4" stroke-linecap="round" filter="url(#softGlow)"/>
  <path d="M28 26V68M48 26V68M68 26V68" stroke="#16213e" stroke-width="4.5" stroke-linecap="round"/>
  <path d="M22 49L34 43M42 49L54 43M62 49L74 43" stroke="#18a999" stroke-width="4" stroke-linecap="round"/>
  <circle cx="28" cy="72" r="5" fill="#2f80ed"/>
  <circle cx="48" cy="72" r="5" fill="#2f80ed"/>
  <circle cx="68" cy="72" r="5" fill="#2f80ed"/>
  <path d="M78 19L72 32H79L68 51L72 36H66L72 19Z" fill="#f5b84b"/>
</svg>
